<?xml version="1.0" encoding="utf-8"?>
<!-- Generator: Adobe Illustrator 21.0.2, SVG Export Plug-In . SVG Version: 6.00 Build 0)  -->
<svg version="1.1" id="Vrstva_1" xmlns="http://www.w3.org/2000/svg" xmlns:xlink="http://www.w3.org/1999/xlink" x="0px" y="0px"
	 viewBox="0 0 139.8 140.3" style="enable-background:new 0 0 139.8 140.3;" xml:space="preserve">
<style type="text/css">
	.st0{fill:none;stroke:#9BA0A3;stroke-width:0.286;}
	.st1{fill:#888E92;}
	.st2{fill:#FBD200;}
	.st3{fill:#E4312F;}
	.st4{fill:#185F9E;}
	.st5{fill:#9BA0A3;}
</style>
<g>
	<path class="st0" d="M96.6,94.7L111,39l-27,7.1l3.6-13.3L77,39l-6.9-9.6L63.1,39l-10.7-6.3l3.6,13.4l-27-7.2l13.7,53.4h0l0,0.1
		l0.4,1.7l0,0c0,0,1.4,5.6,2.6,7.4l0,0c3.1,5.7,12.8,9.9,24.2,9.9c12.3,0,22.5-4.8,24.8-11.1C95.7,98.1,96.3,95.6,96.6,94.7
		L96.6,94.7z"/>
	<path class="st1" d="M82.8,38.7l-0.3,0.5l-0.4,1.1l-4.6,3c1,0.4,1.7,1.3,1.7,2.5c0,1.5-1.2,2.6-2.6,2.6c-1.5,0-2.6-1.2-2.6-2.6
		c0-1.5,1.2-2.6,2.6-2.6c0,0,0,0,0,0L71.1,36L70,35.6l0.1,0.7l0.3,0.6c0,0-1.8,7.3-1.8,8.8c0,1.5-1.2,2.6-2.6,2.6
		c-1.5,0-2.6-1.2-2.6-2.6c0-1.1,0.7-2.1,1.7-2.5l-6.7-4.2l0,0l-1.2-0.4l0.6,1.1l0.8,0.3l3.7,14.4c0,0,0,0,0,0l0.4,1.3l-0.9-0.1
		l-0.1,0.3l1.2,0.4c1.9,0.4,4.9,0.6,8.3,0.6c3.1,0,5.9-0.2,7.8-0.6l0.6-1.9h0L84,39.1L82.8,38.7"/>
	<path class="st1" d="M68.2,60c-2.6-0.2-7.8-0.6-8-1.3c-0.3-0.9-1.4-6.5-1.7-7.2c-0.4-0.7-0.5-1.8-5-3L35.4,44l13.2,17.2l0.7,3.4
		L40,62.3l10.8,15.4l0.7,3.4l-7.2-1.7l2.9,11.8l-0.6,0.1l-0.3,0.7l1.2,0.4l2.3-0.8l2.6-8.7c0.1-0.4,0.2-0.7,0.3-1.1
		c0.6-1.4,1.7-2.6,3.3-3.2c2.9-1.1,6.2,0.4,7.3,3.3c0.5,1.2,0.5,2.5,0.1,3.6l-0.5,0.1l-0.6,0.3l-0.6,0.4l1.2,0.4l6.7-2.5v-7.6
		l-1.2-0.4l-0.6,1.1l0.3,0.4c-0.8,0.5-1.8,0.7-2.8,0.7c-3.1,0-5.7-2.5-5.7-5.7c0-1.6,0.7-3,1.7-4.1l0,0l0.3-0.3
		c0.2-0.1,0.3-0.3,0.5-0.4l7.3-5.6V60l-1.2-0.4L68.2,60 M103.2,58.8l3.7-14.8l-1.2-0.4l-0.7,0.9l-16.2,4c-4.5,1.2-4.6,2.2-5,3
		c-0.4,0.7-1.4,6.3-1.7,7.2c-0.3,0.9-9.5,1.4-9.5,1.4v2.4l7.1,5.4c0.3,0.2,0.6,0.4,0.9,0.7c1.1,1,1.8,2.5,1.8,4.2
		c0,3.1-2.5,5.7-5.7,5.7c-1.6,0-4.9-1-4.9-1l0.8,0.3v6.4l6.5,2.4c-0.7-1.4-0.9-3.1-0.3-4.7c1.1-2.9,4.4-4.4,7.3-3.3
		c1.5,0.6,2.7,1.8,3.2,3.2c0.1,0.3,0.2,0.7,0.3,1.1l2.5,8.6l2.5,0.9l3.2-12.9L96.9,79l-0.8,0.9l-5.2,1.2l0.7-3.4l7.3-1.7l3.4-13.7
		l-1.2-0.4l-0.7,0.9L93,64.6l0.7-3.4L103.2,58.8z"/>
	<path class="st1" d="M91.5,94.3l-7.9,4.9c-0.2,0.1-0.3,0.2-0.5,0.3l-0.4,0.2l0,0c-1.3,0.6-2.9,0.7-4.4,0.2
		c-2.9-1.1-4.4-4.4-3.3-7.3c0.5-1.4,1.6-2.5,2.9-3.1l-6.7-2.4l-6.8,2.4c1.3,0.6,2.4,1.7,2.9,3.1c1.1,2.9-0.4,6.2-3.3,7.3
		c-1.5,0.6-2.1,0.2-4.4-0.1c-2.3-0.3-8.8-5-9.5-5.2c-0.7-0.2-1.7,0.6-1.7,0.6h0.1c0,0.1,0.5,2.4,1.8,4.7c0.3,0.6,0.7,1.2,1.1,1.7
		c0,0,0,0,0,0.1v0c3.3,3.9,11,6.7,19.9,6.7c8.6,0,16-2.5,19.5-6.2l0,0c2.6-2.5,3.3-6.7,3.3-6.9h0.1L91.5,94.3"/>
	<path class="st2" d="M76.4,42.9c1,0.4,1.7,1.3,1.7,2.5c0,1.5-1.2,2.6-2.6,2.6c-1.5,0-2.6-1.2-2.6-2.6c0-1.5,1.2-2.6,2.6-2.6
		c0,0,0,0,0,0L70,35.6l-5.3,7.1c0,0,0.1,0,0.1,0c1.5,0,2.6,1.2,2.6,2.6S66.2,48,64.8,48c-1.5,0-2.6-1.2-2.6-2.6
		c0-1.1,0.7-2.1,1.7-2.5l-6.7-4.2l4,15.3l0,0l0.5,1.8c1.9,0.4,4.9,0.6,8.3,0.6c3.1,0,5.9-0.2,7.8-0.6l0.6-1.9h0l4.4-15.3L76.4,42.9"
		/>
	<path class="st3" d="M58.6,72.3c0-1.6,0.7-3,1.7-4.1l0,0l0.3-0.3c0.2-0.1,0.3-0.3,0.5-0.4l7.3-5.6v-2.3c0,0-9.2-0.5-9.5-1.4
		c-0.3-0.9-1.4-6.5-1.7-7.2c-0.4-0.7-0.5-1.8-5-3l-18.1-4.5l3.7,14.8l9.5,2.4l0.7,3.4l-9.4-2.3l3.4,13.7l7.3,1.7l0.7,3.4L43.1,79
		l3.2,12.9l2.3-0.8l2.6-8.7c0.1-0.4,0.2-0.7,0.3-1.1c0.6-1.4,1.7-2.6,3.3-3.2c2.9-1.1,6.2,0.4,7.3,3.3c0.6,1.6,0.4,3.3-0.3,4.7
		l6.7-2.5v-7.6c-1,1.1-2.5,1.8-4.2,1.8C61.2,78,58.6,75.4,58.6,72.3 M102.1,58.4l3.7-14.8L87.7,48c-4.5,1.2-4.6,2.2-5,3
		c-0.4,0.7-1.4,6.3-1.7,7.2c-0.3,0.9-9.5,1.4-9.5,1.4v2.4l7.1,5.4c0.3,0.2,0.6,0.4,0.9,0.7c1.1,1,1.8,2.5,1.8,4.2
		c0,3.1-2.5,5.7-5.7,5.7c-1.6,0-3.1-0.7-4.1-1.8v7.5l6.5,2.4c-0.7-1.4-0.9-3.1-0.3-4.7c1.1-2.9,4.4-4.4,7.3-3.3
		c1.5,0.6,2.7,1.8,3.2,3.2c0.1,0.3,0.2,0.7,0.3,1.1l2.5,8.6l2.5,0.9L96.9,79l-7.2,1.7l0.7-3.4l7.3-1.7l3.4-13.7l-9.4,2.3l0.7-3.4
		L102.1,58.4z"/>
	<path class="st4" d="M90.3,93.9l-7.9,4.9c-0.2,0.1-0.3,0.2-0.5,0.3l-0.4,0.2l0,0c-1.3,0.6-2.9,0.7-4.4,0.2
		c-2.9-1.1-4.4-4.4-3.3-7.4c0.5-1.4,1.6-2.5,2.9-3.1L70,86.6L63.2,89c1.3,0.6,2.4,1.7,2.9,3.1c1.1,2.9-0.4,6.2-3.3,7.3
		c-1.5,0.6-3.1,0.4-4.4-0.2l0,0L58,99.1c-0.2-0.1-0.4-0.2-0.5-0.3l-7.8-4.9l-2.5,0.9h0.1c0,0.1,0.5,2.4,1.8,4.7
		c0.3,0.6,0.7,1.2,1.1,1.7c0,0,0,0,0,0.1l0,0c3.3,3.9,11,6.7,19.9,6.7c8.6,0,16-2.5,19.5-6.2h0c2.6-2.4,3.3-6.7,3.3-6.9h0.1
		L90.3,93.9"/>
</g>
<g>
	<path class="st5" d="M0.4,77.9l-0.1-2.3l4.6-0.2l-0.2-4.5l-4.6,0.2L0,68.9l11.3-0.5l0.1,2.3l-5,0.2l0.2,4.5l5-0.2l0.1,2.3L0.4,77.9
		z"/>
	<path class="st5" d="M0.9,58.7c0.6-3.5,3.3-5.1,6.6-4.5c3.4,0.6,5.5,2.9,4.9,6.4c-0.6,3.6-3.3,5.1-6.7,4.5
		C2.3,64.6,0.3,62.3,0.9,58.7z M10.7,60.3c0.4-2.3-1.5-3.5-3.5-3.8c-2-0.3-4.1,0.2-4.5,2.5s1.5,3.5,3.5,3.8
		C8.1,63.1,10.3,62.6,10.7,60.3z"/>
	<path class="st5" d="M7.3,44.2c-0.5,0.6-1,1.2-1.2,2C5.8,46.9,5.8,48,7,48.4c1.8,0.7,2.8-4.3,6.3-3c2.3,0.9,2.5,3,1.7,5.2
		c-0.4,1.2-0.8,1.6-1.4,2.6l-1.8-0.9c0.7-0.6,1.2-1.3,1.5-2.2c0.3-0.8,0.3-2-0.7-2.4c-2-0.7-2.9,4.2-6.4,2.9c-2.4-0.9-2.6-3-1.9-4.9
		c0.3-0.9,0.8-1.7,1.3-2.4L7.3,44.2z"/>
	<path class="st5" d="M7.4,39l1.4-2.5c1.2-2.1,2.9-3.8,5.3-2.4c2.3,1.3,2.2,3.4,1,5.6l-0.5,0.8l3.7,2.1l-1.1,2L7.4,39z M13.1,39.6
		l0.4-0.7c0.6-1,0.7-2.1-0.4-2.7c-1.1-0.6-2,0-2.6,1l-0.4,0.7L13.1,39.6z"/>
	<path class="st5" d="M16.5,25c2.3-2.7,5.4-2.7,8-0.5s3.2,5.3,0.9,8c-2.3,2.8-5.4,2.7-8.1,0.4C14.8,30.7,14.2,27.7,16.5,25z
		 M24.1,31.4c1.5-1.8,0.5-3.8-1.1-5.1c-1.5-1.3-3.7-1.9-5.1-0.2c-1.5,1.7-0.5,3.7,1,5C20.5,32.5,22.6,33.2,24.1,31.4z"/>
	<path class="st5" d="M23.7,17.7l2.4-1.9c2.7-2.1,5.9-3.1,8.6,0.5c2.7,3.6,1,6.3-1.7,8.5l-2.4,1.9L23.7,17.7z M31.3,23.9l1-0.8
		c1.5-1.2,2.1-3.4,0.6-5.3c-1.5-1.9-3.8-1.9-5.3-0.8l-1,0.8L31.3,23.9z"/>
	<path class="st5" d="M38,5.4l2.1-1l-1.2,2.6l-1.3,0.6L38,5.4z M37.7,8.3L40,7.1l9,8.1l-2.2,1.1l-2-1.9l-4.1,2l0.3,2.8l-2.1,1
		L37.7,8.3z M39.8,9.7L39.8,9.7l0.6,4.9l3-1.5L39.8,9.7z"/>
	<path class="st5" d="M47.6,3.9L50,3.3c2.3-0.6,5.1-1.5,6,1.5c0.4,1.3-0.2,2.6-1.5,3.2l0,0c0.6-0.1,1.1,0.4,1.5,0.8l2.9,3.8
		l-2.4,0.7l-2.3-3c-0.5-0.7-0.9-1-1.8-0.7l-0.7,0.2l1.3,4.5l-2.2,0.6L47.6,3.9z M49.7,2.7l-1.9-1.3L49.3,1l1.3,0.7l0.7-1.3L52.7,0
		l-1,2.1L49.7,2.7z M51.1,8l0.7-0.2c1.1-0.3,2.3-0.8,1.9-2.2c-0.4-1.3-1.6-1.1-2.7-0.8L50.3,5L51.1,8z"/>
	<path class="st5" d="M65.9,2.5c-0.7-0.2-1.5-0.3-2.3-0.2c-0.8,0.1-1.7,0.5-1.6,1.7c0.2,1.9,5,0.6,5.4,4.4c0.3,2.5-1.6,3.6-3.9,3.8
		c-1.2,0.1-1.8,0-2.9-0.1V10c0.8,0.3,1.7,0.5,2.6,0.4c0.9-0.1,2-0.6,1.8-1.7c-0.2-2.1-5.1-0.7-5.4-4.5c-0.3-2.5,1.6-3.6,3.6-3.8
		c1-0.1,1.9-0.1,2.7,0.1L65.9,2.5z"/>
	<path class="st5" d="M70.7,0.2L73,0.4l-0.3,4.8l4.4-4.6l2.8,0.2l-5,5l4.4,6.3l-3-0.2l-3.7-5.5l0,0l-0.4,5.2L70,11.5L70.7,0.2z"/>
	<path class="st5" d="M87.8,2.6l2.5,0.7l1.2,12.1L89,14.7l-0.2-2.8l-4.4-1.2l-1.7,2.2l-2.3-0.6L87.8,2.6z M88.3,5.1L88.3,5.1l-2.9,4
		l3.2,0.9L88.3,5.1z M89.9,0.7l2.2,0.6l-2.6,1.1L88.1,2L89.9,0.7z"/>
	<path class="st5" d="M106.2,10.3l1.9,1.3l-2.7,4l6.1-1.7l2.3,1.6l-6.8,1.8l0.6,7.7l-2.4-1.7l-0.4-6.6l0,0l-3,4.3l-1.9-1.3
		L106.2,10.3z"/>
	<path class="st5" d="M120,21c2.5,2.5,2.2,5.6-0.2,8c-2.4,2.4-5.6,2.7-8.1,0.2c-2.5-2.6-2.2-5.6,0.3-8.1
		C114.4,18.7,117.4,18.4,120,21z M112.9,28c1.6,1.6,3.7,0.8,5.1-0.6c1.4-1.4,2.2-3.5,0.6-5.1c-1.6-1.6-3.7-0.8-5.1,0.6
		C112.1,24.3,111.3,26.3,112.9,28z"/>
	<path class="st5" d="M126.8,28.9l1.9,3.1l-6,6.7l0,0l8.7-2.1l1.9,3.1l-9.7,5.8l-1.1-1.9l8-4.8l0,0l-9.6,2.2l-1.1-1.9l6.4-7.4l0,0
		l-8,4.8l-1.1-1.9L126.8,28.9z"/>
	<path class="st5" d="M137.1,49.6c1,3.4-0.7,6-3.9,7c-3.3,1-6.2-0.1-7.3-3.6c-1.1-3.5,0.7-6,4-7C133.2,45,136,46.2,137.1,49.6z
		 M127.6,52.5c0.7,2.2,2.9,2.4,4.9,1.8c1.9-0.6,3.6-2.1,2.9-4.2c-0.7-2.2-2.9-2.4-4.8-1.8C128.6,48.9,126.9,50.3,127.6,52.5z"/>
	<path class="st5" d="M139.3,59.3l0.2,2.4c0.2,2.4,0.6,5.3-2.5,5.6c-1.3,0.1-2.5-0.6-2.8-2.1l0,0c0,0.6-0.6,1-1,1.3l-4.2,2.3
		l-0.3-2.5l3.4-1.7c0.8-0.4,1.1-0.7,1-1.7l-0.1-0.7l-4.7,0.5l-0.2-2.3L139.3,59.3z M134.7,62.1l0.1,0.7c0.1,1.1,0.4,2.4,1.8,2.2
		c1.4-0.1,1.3-1.4,1.2-2.5l-0.1-0.7L134.7,62.1z"/>
	<path class="st5" d="M139.8,75.6l-0.2,2.5l-11.7,3.4l0.2-2.5l2.7-0.7l0.4-4.6l-2.5-1.2l0.2-2.3L139.8,75.6z M137.4,76.6L137.4,76.6
		l-4.5-2.1l-0.3,3.3L137.4,76.6z"/>
	<path class="st5" d="M122.1,98.1c0.2-0.8,0.4-1.7,0.7-2.5c1.5-3.4,4.2-4.9,7.7-3.4c3.5,1.6,4.6,4.6,3,8.1c-0.3,0.7-0.8,1.5-1.5,2.2
		l-1.7-0.9c0.8-0.6,1.2-1.3,1.5-2c0.9-2.1-0.1-4.2-2.2-5.1c-2.1-0.9-4.3-0.3-5.2,1.9c-0.4,0.8-0.6,1.9-0.6,2.5L122.1,98.1z
		 M134.4,99.3l2.2-0.7l-0.6,1.4l-1.4,0.5l0.5,1.4l-0.6,1.4l-1-2.1L134.4,99.3z"/>
	<path class="st5" d="M130.2,106.1l-3.7,5.6l-1.5-1l2.4-3.7l-2.3-1.5l-2.2,3.4l-1.5-1l2.2-3.4l-2.7-1.7l-2.4,3.7l-1.5-1l3.7-5.6
		L130.2,106.1z"/>
	<path class="st5" d="M118.3,118.1c0.7-0.3,1.4-0.8,1.9-1.4c0.5-0.6,0.9-1.5,0-2.4c-1.4-1.3-4.2,2.9-7,0.4c-1.8-1.7-1.2-3.7,0.3-5.4
		c0.8-0.9,1.3-1.2,2.3-1.8l1.4,1.5c-0.8,0.3-1.6,0.8-2.2,1.4c-0.6,0.6-1,1.8-0.3,2.5c1.6,1.4,4.3-2.8,7-0.3c1.9,1.7,1.2,3.8-0.1,5.2
		c-0.7,0.7-1.4,1.3-2.1,1.7L118.3,118.1z"/>
	<path class="st5" d="M116.2,123l-1.8,1.4l-3-3.8l-0.2,6.3l-2.2,1.7l0.4-7.1l-7.5-1.7l2.3-1.8l6.4,1.6l0,0l-3.2-4.1l1.8-1.4
		L116.2,123z"/>
	<path class="st5" d="M105.6,130.6l-5.9,3.1l-0.8-1.6l3.9-2.1l-1.3-2.5l-3.6,1.9L97,128l3.6-1.9l-1.5-2.8l-3.9,2.1l-0.8-1.6l5.9-3.1
		L105.6,130.6z M103.3,134.6l-2,1.1l1.1-2.6l1.3-0.7L103.3,134.6z"/>
	<path class="st5" d="M87,138.3l-2.4,0.5c-2.4,0.5-5.2,1.1-5.8-2c-0.2-1.3,0.4-2.6,1.8-3l0,0c-0.6,0.1-1.1-0.5-1.4-0.9l-2.6-4
		l2.5-0.5l2,3.2c0.5,0.8,0.8,1,1.8,0.9l0.7-0.1l-0.9-4.6l2.2-0.4L87,138.3z M83.9,134l-0.7,0.1c-1.1,0.2-2.3,0.6-2.1,2
		c0.3,1.3,1.5,1.2,2.6,1l0.7-0.1L83.9,134z"/>
	<path class="st5" d="M74.9,140.1l-6.7,0.2l0-1.8l4.4-0.1l-0.1-2.8l-4,0.1l0-1.8l4-0.1l-0.1-3.2l-4.4,0.1l0-1.8l6.7-0.2L74.9,140.1z
		"/>
	<path class="st5" d="M63.9,140l-2.8-0.4c-2.4-0.3-4.6-1.3-4.2-4c0.4-2.6,2.4-3.3,4.8-3l0.9,0.1l0.6-4.3l2.2,0.3L63.9,140z
		 M62.3,134.5l-0.8-0.1c-1.1-0.2-2.2,0.1-2.4,1.4c-0.2,1.3,0.7,1.9,1.9,2l0.8,0.1L62.3,134.5z"/>
	<path class="st5" d="M52.6,138.2l-2.2-0.7l2-6.2c0.6-1.8,0.4-3.2-1.2-3.8c-1.6-0.5-2.6,0.5-3.2,2.3l-2,6.2l-2.2-0.7l2.3-6.9
		c0.9-2.9,3-3.5,5.7-2.6c2.8,0.9,4,2.6,3.1,5.5L52.6,138.2z"/>
	<path class="st5" d="M39.3,133.2l-3.5-1.9c-1.3-0.7-3-2.1-1.8-4.3c0.7-1.2,1.9-1.6,3.2-1.1l0,0c-1.3-0.9-1.7-2.3-1-3.5
		c1.4-2.5,3.8-1.6,5.1-0.9l3.5,1.9L39.3,133.2z M39.5,128.1l-0.8-0.4c-0.8-0.5-2-0.9-2.5,0.2c-0.6,1.1,0.3,1.8,1.2,2.3l0.8,0.4
		L39.5,128.1z M42,123.8l-0.9-0.5c-0.9-0.5-2.2-0.9-2.8,0.2c-0.7,1.3,0.2,2.1,1.2,2.6l0.9,0.5L42,123.8z"/>
	<path class="st5" d="M29,126.9l-1.8-1.4l5.9-7.5l-3.4-2.7l1.1-1.4l5.2,4.1L29,126.9z"/>
	<path class="st5" d="M21.5,120.6l-1.6-1.6l8-8l1.6,1.6L21.5,120.6z"/>
	<path class="st5" d="M16.8,115.8l-1.4-1.8l3.9-2.9l-6.3-0.3l-1.7-2.2l7.1,0.5l1.8-7.5l1.8,2.4l-1.7,6.4l0,0l4.2-3.2l1.4,1.8
		L16.8,115.8z"/>
	<path class="st5" d="M13.8,98.8l-4.3,6.7l-1.2-2.4l3.1-4.5l-5.5-0.4l-1-2.2l7.9,0.7l4-2l1,2L13.8,98.8z"/>
</g>
</svg>